HIERARCHY
ROOT Hips
{
	OFFSET 0.000000 0.000000 0.000000 
	CHANNELS 6 Xposition Yposition Zposition Yrotation Zrotation Xrotation 
	JOINT Lumbar
	{
		OFFSET 0.000000 0.000000 0.000000 
		CHANNELS 3 Zrotation Xrotation Yrotation
		JOINT Neck
		{
			OFFSET 0.000000 0.445665 0.000000 
			CHANNELS 3 Zrotation Xrotation Yrotation
			End Site
			{
				OFFSET 0.000000 0.227535 0.000000 
			}
		}
		JOINT RightShoulder
		{
			OFFSET 0.019635 0.377685 0.194865 
			CHANNELS 3 Zrotation Xrotation Yrotation
			JOINT RightElbow
			{
				OFFSET 0.000000 -0.243375 0.000000 
				CHANNELS 2 Zrotation Yrotation
				JOINT RightWrist
				{
					OFFSET 0.000000 -0.264825 0.000000 
					CHANNELS 2 Zrotation Xrotation
					End Site
					{
						OFFSET 0.006600 -0.176220 0.000990 
					}
				}
			}
		}
		JOINT LeftShoulder
		{
			OFFSET 0.019635 0.377685 -0.194865 
			CHANNELS 3 Zrotation Xrotation Yrotation
			JOINT LeftElbow
			{
				OFFSET 0.000000 -0.243375 0.000000 
				CHANNELS 2 Zrotation Yrotation
				JOINT LeftWrist
				{
					OFFSET 0.000000 -0.264825 0.000000 
					CHANNELS 2 Zrotation Xrotation
					End Site
					{
						OFFSET 0.006600 -0.176220 -0.000990 
					}
				}
			}
		}
	}
	JOINT RightHip
	{
		OFFSET 0.052140 -0.069960 0.075570 
		CHANNELS 3 Zrotation Xrotation Yrotation
		JOINT RightKnee
		{
			OFFSET 0.000000 -0.402270 0.000000 
			CHANNELS 1 Zrotation
			JOINT RightAnkle
			{
				OFFSET 0.000000 -0.404085 0.000000 
				CHANNELS 3 Zrotation Xrotation Yrotation
				End Site
				{
					OFFSET 0.204105 -0.089430 0.008415 
				}
			}
		}
	}
	JOINT LeftHip
	{
		OFFSET 0.052140 -0.069960 -0.075570 
		CHANNELS 3 Zrotation Xrotation Yrotation
		JOINT LeftKnee
		{
			OFFSET 0.000000 -0.402270 0.000000 
			CHANNELS 1 Zrotation
			JOINT LeftAnkle
			{
				OFFSET 0.000000 -0.404085 0.000000 
				CHANNELS 3 Zrotation Xrotation Yrotation
				End Site
				{
					OFFSET 0.204105 -0.089430 -0.008415 
				}
			}
		}
	}
}
MOTION
Frames: 35
Frame Time: 0.02
0 0.95578 0 183.30337 0 -3.87137 0.93881 2.78829 -6.40277 -29.14231 5.00291 3.0565 -7.27003 -70.60372 -68.78915 22.1316 76.42337 -17.49355 -2.76321 3.77626 64.50771 61.42298 21.76752 -73.24828 -28.68163 2.78475 -4.0251 2.47742 7.06401 -6.19335 -2.17642 -3.48686 -5.96348 -0.95722 6.49352 -5.89974 -7.6831 5.33694 1.09886 -2.43387
-8e-05 0.95577 -8e-05 183.30245 0 -3.87195 0.94624 2.78181 -6.41046 -29.21372 5.01603 3.0461 -7.14381 -70.60602 -68.72606 22.13646 76.48456 -17.48822 -2.74002 3.84104 64.4832 61.40634 21.74819 -73.30953 -28.61711 2.82523 -4.02773 2.48084 7.03813 -6.19598 -2.17145 -3.49457 -5.93378 -0.95702 6.49865 -5.88877 -7.69347 5.3433 1.08608 -2.44337
-0.00016 0.95577 -0.00016 183.30144 0 -3.87254 0.95362 2.77537 -6.41806 -29.2849 5.02903 3.03574 -7.01814 -70.60812 -68.66341 22.14126 76.54551 -17.48275 -2.71718 3.90546 64.45883 61.38979 21.72897 -73.37056 -28.55308 2.8654 -4.03039 2.48426 7.01255 -6.19852 -2.16649 -3.50221 -5.90434 -0.95688 6.50377 -5.87802 -7.70376 5.34965 1.07348 -2.45256
-0.00025 0.95576 -0.00024 183.30004 0 -3.87316 0.96087 2.76893 -6.42535 -29.35572 5.04169 3.02554 -6.89362 -70.60953 -68.60185 22.14589 76.60605 -17.47652 -2.6956 3.96889 64.43485 61.37377 21.71019 -73.43089 -28.49063 2.90481 -4.03316 2.48774 6.98789 -6.20073 -2.16162 -3.50971 -5.87561 -0.95697 6.50887 -5.86801 -7.71379 5.35602 1.06149 -2.46068
-0.00033 0.95575 -0.00033 183.30066 0 -3.8736 0.96879 2.76239 -6.43428 -29.42828 5.05617 3.01458 -6.76323 -70.61474 -68.53449 22.15147 76.66868 -17.47413 -2.66745 4.03736 64.40888 61.35537 21.68932 -73.49443 -28.42011 2.94836 -4.03527 2.4909 6.95835 -6.20472 -2.15636 -3.51805 -5.84306 -0.95583 6.51407 -5.85404 -7.72516 5.36229 1.0463 -2.47455
-0.00041 0.95574 -0.00041 183.29701 0 -3.87442 0.97529 2.75612 -6.43972 -29.49719 5.06677 3.00522 -6.64521 -70.61181 -68.47946 22.15503 76.72687 -17.46376 -2.65312 4.09524 64.38709 61.34174 21.67273 -73.55143 -28.36653 2.98302 -4.03881 2.49474 6.93914 -6.20491 -2.15189 -3.52455 -5.81864 -0.9573 6.51904 -5.84849 -7.73371 5.36877 1.03789 -2.47621
-0.00051 0.95572 -0.0005 183.28111 0 -3.87639 0.97801 2.75004 -6.43538 -29.55664 5.06687 3.00041 -6.56081 -70.58628 -68.45818 22.15288 76.77372 -17.42912 -2.67902 4.12325 64.37729 61.34382 21.66916 -73.58881 -28.36171 2.9939 -4.04637 2.50073 6.94914 -6.19438 -2.14985 -3.52625 -5.81663 -0.96634 6.52364 -5.86669 -7.73413 5.37582 1.04863 -2.44333
-0.00062 0.95571 -0.0006 183.26099 0 -3.87874 0.97929 2.74432 -6.42755 -29.61235 5.06303 2.99719 -6.48887 -70.55252 -68.44931 22.14869 76.816 -17.38675 -2.71856 4.14076 64.3716 61.35023 21.66969 -73.61988 -28.37364 2.99568 -4.05536 2.50736 6.96942 -6.18007 -2.14857 -3.52607 -5.82283 -0.97797 6.52796 -5.89333 -7.73176 5.38307 1.06616 -2.39829
-0.00072 0.9557 -0.0007 183.24302 0 -3.88089 0.98115 2.7388 -6.42138 -29.66941 5.06083 2.99317 -6.41152 -70.52254 -68.435 22.14551 76.8598 -17.3494 -2.75055 4.16345 64.3637 61.35303 21.66753 -73.65493 -28.37656 3.00109 -4.06368 2.51351 6.98457 -6.1676 -2.14674 -3.52655 -5.82529 -0.98821 6.53225 -5.91584 -7.73092 5.39025 1.08034 -2.35925
-0.00082 0.95568 -0.0008 183.22392 0 -3.88318 0.98332 2.7318 -6.41483 -29.72792 5.0592 2.98949 -6.33323 -70.49236 -68.4201 22.14203 76.90583 -17.30593 -2.78816 4.1842 64.35725 61.36284 21.66878 -73.6854 -28.38525 3.00853 -4.07212 2.52047 7.0017 -6.15454 -2.14571 -3.52776 -5.82777 -0.99936 6.53722 -5.93962 -7.72903 5.39738 1.09564 -2.31806
-0.00092 0.95567 -0.00088 183.20634 0 -3.88523 0.9845 2.72791 -6.40832 -29.78255 5.05554 2.98546 -6.2597 -70.46072 -68.40908 22.13863 76.94629 -17.2731 -2.81738 4.20675 64.34876 61.35901 21.66401 -73.72378 -28.38606 3.00968 -4.0806 2.52588 7.01711 -6.14192 -2.14326 -3.52709 -5.83216 -1.00921 6.54068 -5.96271 -7.7286 5.40461 1.11019 -2.27868
-0.00101 0.95566 -0.00089 183.19252 0 -3.88672 0.98332 2.7329 -6.4023 -29.82706 5.04649 2.98024 -6.19738 -70.42621 -68.4082 22.13663 76.97113 -17.2737 -2.81938 4.23488 64.33373 61.31688 21.64064 -73.78686 -28.35992 2.9949 -4.0892 2.52698 7.02562 -6.13032 -2.13634 -3.52086 -5.83981 -1.01501 6.54021 -5.98239 -7.73338 5.41251 1.12133 -2.24517
-0.0011 0.95565 -0.00088 183.18064 0 -3.8879 0.98119 2.74093 -6.39653 -29.86788 5.03567 2.97458 -6.1391 -70.39065 -68.41024 22.13472 76.99072 -17.28489 -2.81259 4.26561 64.31649 61.26072 21.61126 -73.85797 -28.32553 2.97427 -4.09772 2.52649 7.03195 -6.11947 -2.12804 -3.51293 -5.8491 -1.01939 6.53818 -6.001 -7.73964 5.42041 1.13141 -2.21427
-0.00118 0.95564 -0.00088 183.1688 0 -3.88908 0.97948 2.74729 -6.39099 -29.91059 5.02616 2.969 -6.07838 -70.35611 -68.40947 22.1323 77.01374 -17.2898 -2.81029 4.29641 64.30021 61.21076 21.58526 -73.92446 -28.29561 2.9568 -4.106 2.52666 7.03904 -6.10904 -2.12062 -3.50633 -5.85763 -1.02432 6.53677 -6.01971 -7.74488 5.42801 1.14176 -2.18355
-0.00128 0.95563 -0.00088 183.15289 0 -3.89089 0.97777 2.75486 -6.38392 -29.9522 5.01439 2.964 -6.02106 -70.31903 -68.41585 22.13162 77.0325 -17.30057 -2.80642 4.32138 64.28425 61.16192 21.55661 -73.99451 -28.26309 2.9368 -4.11544 2.52713 7.04751 -6.09536 -2.11219 -3.49737 -5.8665 -1.02978 6.53576 -6.04027 -7.75146 5.43687 1.15327 -2.14668
-0.00135 0.95561 -0.00087 183.146 0 -3.89129 0.97587 2.76063 -6.3801 -29.99534 5.00693 2.95767 -5.95693 -70.28706 -68.40731 22.12756 77.05857 -17.30184 -2.80351 4.35945 64.26706 61.10708 21.53205 -74.05952 -28.234 2.92091 -4.12249 2.52656 7.05238 -6.08858 -2.1055 -3.49288 -5.87496 -1.03371 6.53352 -6.05669 -7.7557 5.4431 1.16199 -2.12334
-0.0014 0.95561 -0.00082 183.16327 0 -3.88799 0.97347 2.76075 -6.38536 -30.04295 5.01204 2.94779 -5.87748 -70.26975 -68.36146 22.11251 77.10939 -17.27352 -2.80559 4.43124 64.24687 61.04153 21.51979 -74.10534 -28.21443 2.91676 -4.12252 2.52373 7.04857 -6.10148 -2.10431 -3.5017 -5.88156 -1.03414 6.52854 -6.06142 -7.75239 5.44201 1.1636 -2.13732
-0.00143 0.9556 -0.00075 183.18959 0 -3.88327 0.97097 2.75894 -6.39383 -30.09234 5.02153 2.93661 -5.79014 -70.25763 -68.29954 22.09447 77.16718 -17.23545 -2.80886 4.51646 64.22548 60.96993 21.51195 -74.14648 -28.19873 2.91716 -4.12022 2.51986 7.04105 -6.12117 -2.10487 -3.51498 -5.88767 -1.033 6.52232 -6.0621 -7.74682 5.43829 1.16235 -2.16473
-0.00147 0.95559 -0.00069 183.21204 0 -3.87914 0.96868 2.75796 -6.40074 -30.14138 5.02888 2.92597 -5.70342 -70.24296 -68.24191 22.07877 77.21961 -17.20237 -2.81132 4.59684 64.20478 60.89954 21.5023 -74.19193 -28.18267 2.91626 -4.11929 2.51631 7.0347 -6.13721 -2.10443 -3.52586 -5.89419 -1.03228 6.51651 -6.06494 -7.74277 5.43579 1.16212 -2.1857
-0.00151 0.95559 -0.00063 183.23368 0 -3.87521 0.96569 2.75729 -6.40816 -30.18844 5.03678 2.9154 -5.62938 -70.22897 -68.19721 22.05857 77.28104 -17.16731 -2.81447 4.6722 64.18362 60.83531 21.49143 -74.22836 -28.16106 2.91207 -4.11712 2.51337 7.03038 -6.15562 -2.10482 -3.53826 -5.90012 -1.03271 6.51133 -6.06636 -7.73667 5.43314 1.16295 -2.20832
-0.00154 0.95558 -0.00057 183.25893 0 -3.87056 0.96413 2.75547 -6.4152 -30.23996 5.04463 2.90452 -5.52698 -70.2149 -68.12161 22.04749 77.32555 -17.1339 -2.81674 4.76086 64.16287 60.75683 21.48448 -74.28243 -28.15121 2.91567 -4.1169 2.50891 7.02108 -6.17077 -2.10391 -3.54857 -5.90697 -1.03044 6.50455 -6.06983 -7.73427 5.43022 1.16102 -2.23047
-0.00157 0.95558 -0.00046 183.29364 0 -3.86407 0.96653 2.75108 -6.42104 -30.30469 5.05104 2.89203 -5.3482 -70.19853 -67.96527 22.05861 77.32125 -17.10759 -2.81515 4.88571 64.14579 60.64194 21.48526 -74.38536 -28.17939 2.94164 -4.1233 2.5005 6.99809 -6.17463 -2.09903 -3.55206 -5.91794 -1.0207 6.49365 -6.07968 -7.7427 5.42695 1.1512 -2.24983
-0.00159 0.95559 -0.00035 183.33135 0 -3.85696 0.97039 2.74557 -6.42628 -30.37363 5.05732 2.87946 -5.141 -70.18205 -67.7781 22.07988 77.3002 -17.08315 -2.81291 5.02301 64.12862 60.51272 21.49037 -74.5061 -28.21768 2.97494 -4.13162 2.49058 6.97041 -6.1751 -2.09278 -3.55331 -5.92962 -1.00838 6.48117 -6.0918 -7.75491 5.42356 1.13887 -2.26792
-0.00161 0.95559 -0.00024 183.36652 0 -3.85027 0.97356 2.74048 -6.43136 -30.43978 5.06381 2.86766 -4.947 -70.16618 -67.60479 22.09873 77.28655 -17.05775 -2.81174 5.15272 64.1102 60.38917 21.49471 -74.61964 -28.24764 3.00365 -4.13864 2.48135 6.94544 -6.17755 -2.08716 -3.55559 -5.93995 -0.99752 6.46942 -6.10308 -7.76532 5.4204 1.12832 -2.28539
-0.00163 0.9556 -0.00013 183.40688 0 -3.84293 0.97678 2.7357 -6.43832 -30.50967 5.06979 2.85276 -4.75215 -70.14819 -67.43216 22.10752 77.27231 -17.03266 -2.80726 5.29083 64.09772 60.26895 21.49365 -74.7303 -28.29522 3.03788 -4.1474 2.47207 6.91783 -6.17839 -2.0816 -3.55798 -5.95442 -0.9854 6.45762 -6.11339 -7.77597 5.41642 1.115 -2.30835
-0.00166 0.9556 -2e-05 183.43714 0 -3.83682 0.9803 2.73003 -6.44128 -30.57278 5.07679 2.84423 -4.55163 -70.13445 -67.25025 22.1406 77.25741 -17.00729 -2.80962 5.41451 64.07219 60.13849 21.50543 -74.84991 -28.30631 3.06223 -4.15303 2.46254 6.89472 -6.1817 -2.07555 -3.55955 -5.96067 -0.97528 6.44551 -6.12636 -7.78708 5.41417 1.10687 -2.31944
-0.00168 0.95561 0.00011 183.43775 0 -3.83437 0.98379 2.72231 -6.4324 -30.61559 5.08623 2.85413 -4.34866 -70.13294 -67.05602 22.23094 77.22584 -16.9824 -2.83011 5.49309 64.01611 59.98276 21.54618 -75.00141 -28.23179 3.05789 -4.14931 2.45292 6.88469 -6.19257 -2.0685 -3.55926 -5.94192 -0.97172 6.43336 -6.14559 -7.79804 5.41666 1.1138 -2.29754
-0.00171 0.95561 0.00024 183.42823 0 -3.83318 0.98763 2.71372 -6.41966 -30.65148 5.09676 2.87025 -4.13944 -70.13556 -66.852 22.34693 77.19762 -16.95694 -2.85771 5.55733 63.94569 59.81706 21.60064 -75.15927 -28.11653 3.04322 -4.14243 2.44306 6.87943 -6.20602 -2.06099 -3.55824 -5.91521 -0.9702 6.42087 -6.16749 -7.8094 5.42093 1.12603 -2.2638
-0.00174 0.95561 0.00038 183.42396 0 -3.83135 0.9916 2.70545 -6.40929 -30.69088 5.107 2.88303 -3.92953 -70.13602 -66.64942 22.45581 77.18038 -16.93063 -2.8826 5.6292 63.8785 59.65666 21.6524 -75.30655 -28.00881 3.03306 -4.13715 2.43321 6.87239 -6.21833 -2.05368 -3.55764 -5.89359 -0.96748 6.4083 -6.18858 -7.82093 5.42444 1.13579 -2.23568
-0.00177 0.95562 0.0005 183.41706 0 -3.82978 0.99436 2.69745 -6.39633 -30.72896 5.1163 2.89812 -3.73519 -70.13782 -66.46058 22.54518 77.11008 -16.90891 -2.90513 5.69576 63.82595 59.49371 21.68958 -75.4865 -27.94925 3.02409 -4.13121 2.4238 6.86369 -6.23041 -2.04637 -3.55657 -5.86597 -0.96575 6.39672 -6.20824 -7.8312 5.42774 1.14578 -2.20634
-0.0018 0.95562 0.00065 183.41321 0 -3.82796 0.99979 2.68871 -6.38783 -30.76799 5.12793 2.90968 -3.50525 -70.13763 -66.23855 22.68199 77.1509 -16.87767 -2.93442 5.77115 63.73854 59.33239 21.76013 -75.60017 -27.77772 3.0099 -4.1259 2.41335 6.85943 -6.24362 -2.03894 -3.55633 -5.84872 -0.96254 6.38296 -6.23125 -7.84403 5.43189 1.15649 -2.17699
-0.00184 0.95562 0.00088 183.42 0 -3.82533 1.01163 2.6782 -6.39274 -30.81209 5.14464 2.91178 -3.19596 -70.13217 -65.94926 22.93664 77.50169 -16.81849 -2.97944 5.86332 63.5662 59.19007 21.92078 -75.52489 -27.3227 2.98544 -4.12278 2.40079 6.86824 -6.2595 -2.03155 -3.55868 -5.86399 -0.95418 6.36363 -6.26483 -7.86477 5.43818 1.16878 -2.1484
-0.00188 0.95562 0.00114 183.43026 0 -3.82238 1.02629 2.66698 -6.40228 -30.85713 5.16386 2.9098 -2.84771 -70.12416 -65.62239 23.23966 77.96366 -16.75013 -3.03127 5.96718 63.35763 59.04689 22.11401 -75.38339 -26.75344 2.95573 -4.12044 2.38708 6.88106 -6.27643 -2.02402 -3.56188 -5.88967 -0.94436 6.34206 -6.30134 -7.88788 5.44523 1.18146 -2.1206
-0.00193 0.95562 0.00139 183.43908 0 -3.81944 1.04024 2.65604 -6.40953 -30.90133 5.18267 2.90845 -2.5063 -70.11668 -65.29914 23.5246 78.3721 -16.68702 -3.08072 6.07249 63.16069 58.89712 22.29176 -75.27502 -26.22608 2.92734 -4.11791 2.37345 6.89071 -6.29278 -2.01637 -3.5646 -5.90922 -0.93558 6.32127 -6.3352 -7.90929 5.45178 1.19339 -2.09386
-0.00197 0.95562 0.00162 183.44691 0 -3.81711 1.05182 2.64523 -6.41725 -30.94737 5.19846 2.91236 -2.21149 -70.11266 -65.03463 23.79278 78.79288 -16.61906 -3.12724 6.14748 62.98434 58.77921 22.47392 -75.15419 -25.73947 2.90314 -4.11458 2.36167 6.90601 -6.30964 -2.00944 -3.56763 -5.93414 -0.92529 6.30145 -6.37466 -7.93336 5.45903 1.20789 -2.06077
